<svg id="Layer_1" data-name="Layer 1" xmlns="http://www.w3.org/2000/svg" xmlns:xlink="http://www.w3.org/1999/xlink" viewBox="0 0 273.68 349.77"><defs><style>.cls-1{fill:none;}.cls-2{isolation:isolate;}.cls-3{clip-path:url(#clip-path);}.cls-4{fill:#1e7130;}.cls-5{fill:#207431;}.cls-6{fill:#227632;}.cls-7{fill:#1c6f2e;}.cls-8{fill:#1a6c2d;}.cls-9{fill:#186a2b;}.cls-10{fill:#16672a;}.cls-11{clip-path:url(#clip-path-2);}.cls-12{fill:#146528;}.cls-13{clip-path:url(#clip-path-3);}.cls-14{clip-path:url(#clip-path-4);}.cls-15{fill:#146428;}.cls-16{fill:#267d35;}.cls-17{clip-path:url(#clip-path-5);}.cls-18{clip-path:url(#clip-path-6);}.cls-19{fill:#339140;}.cls-20{clip-path:url(#clip-path-7);}.cls-21{fill:#867d0a;}.cls-22{clip-path:url(#clip-path-8);}.cls-23{fill:#998d10;}.cls-24{fill:#9d9112;}.cls-25{fill:#a19413;}.cls-26{fill:#958a0f;}.cls-27{fill:#91870e;}.cls-28{fill:#8e830d;}.cls-29{fill:#8a800b;}.cls-30{clip-path:url(#clip-path-9);}.cls-31{clip-path:url(#clip-path-10);}.cls-32{clip-path:url(#clip-path-11);}.cls-33{clip-path:url(#clip-path-12);}.cls-34{clip-path:url(#clip-path-13);}.cls-35{clip-path:url(#clip-path-14);}.cls-36{clip-path:url(#clip-path-15);}.cls-37{clip-path:url(#clip-path-16);}.cls-38{clip-path:url(#clip-path-17);}.cls-39{clip-path:url(#clip-path-18);}.cls-40{fill:#cab81a;}.cls-41{stroke:#d3d3d3;stroke-width:0.24px;fill:url(#linear-gradient);}.cls-42{fill:#404040;}.cls-43{fill:#ed2224;}.cls-44{fill:#373737;}.cls-45{fill:url(#linear-gradient-2);}.cls-46{fill:#434446;}.cls-47{fill:url(#linear-gradient-3);}.cls-48{fill:#010101;}</style><clipPath id="clip-path" transform="translate(-222.53 -148.58)"><path class="cls-1" d="M332.69,473.87l-22.79-12.4q10,5.44,32.05,2.34,31.64-4.44,51.31-23.34T424,393.19l22.79,12.4Q435.74,434,416.06,452.87t-51.32,23.34Q342.67,479.31,332.69,473.87Z"/></clipPath><clipPath id="clip-path-2" transform="translate(-222.53 -148.58)"><path class="cls-1" d="M389.58,239.59,412.37,252a64.79,64.79,0,0,1,20.54,17.69Q458.05,302.33,458,347a160.66,160.66,0,0,1-11.15,58.59L424,393.19a160.66,160.66,0,0,0,11.15-58.59q.07-44.66-25.06-77.32A64.9,64.9,0,0,0,389.58,239.59Z"/></clipPath><clipPath id="clip-path-3" transform="translate(-222.53 -148.58)"><path class="cls-1" d="M246.45,497.87l-22.8-12.4a2.1,2.1,0,0,1-1.12-2,3.36,3.36,0,0,1,2.08-3.21q2.1-1,12.87-4,13.91-4,19.58-14.76t7.16-63L287,410.91q-1.5,52.21-7.16,63t-19.57,14.76q-10.78,3-12.87,4a3.36,3.36,0,0,0-2.09,3.21A2.12,2.12,0,0,0,246.45,497.87Z"/></clipPath><clipPath id="clip-path-4" transform="translate(-222.53 -148.58)"><path class="cls-1" d="M423.32,233.39l22.8,12.4q-33-18-87.18-10.36L336.14,223Q390.29,215.41,423.32,233.39Z"/></clipPath><clipPath id="clip-path-5" transform="translate(-222.53 -148.58)"><path class="cls-1" d="M256.07,244.52l22.79,12.4a12.46,12.46,0,0,1,2.26,1.54q4.61,4,6.74,19.71a241.62,241.62,0,0,1,2.11,33l-22.79-12.4a241.62,241.62,0,0,0-2.11-33q-2.15-15.75-6.74-19.71A13.39,13.39,0,0,0,256.07,244.52Z"/></clipPath><clipPath id="clip-path-6" transform="translate(-222.53 -148.58)"><path class="cls-1" d="M260.65,253.2l-22.8-12.4a2.49,2.49,0,0,1-1.49-2.25q0-3.95,3.65-4.45t21.3-1.4q17.82-.91,39-3.9l22.79,12.4q-21.21,3-39,3.9t-21.29,1.4q-3.65.51-3.65,4.45A2.46,2.46,0,0,0,260.65,253.2Z"/></clipPath><clipPath id="clip-path-7" transform="translate(-222.53 -148.58)"><path class="cls-1" d="M440.34,322.86l-22.8-12.4a3.55,3.55,0,0,1-1.39-1.94l22.79,12.4A3.51,3.51,0,0,0,440.34,322.86Z"/></clipPath><clipPath id="clip-path-8" transform="translate(-222.53 -148.58)"><path class="cls-1" d="M371,421.13l-22.79-12.4a39.52,39.52,0,0,0,20,4.62,51.46,51.46,0,0,0,6.21-.47,36,36,0,0,0,19.77-9q10-9.15,11.21-20.78a22.66,22.66,0,0,0-3.28-14.72A29.54,29.54,0,0,0,390.84,358l22.8,12.4a29.51,29.51,0,0,1,11.25,10.42,22.73,22.73,0,0,1,3.29,14.72q-1.24,11.64-11.22,20.78a35.88,35.88,0,0,1-19.77,8.95,51.43,51.43,0,0,1-6.21.48A39.52,39.52,0,0,1,371,421.13Z"/></clipPath><clipPath id="clip-path-9" transform="translate(-222.53 -148.58)"><path class="cls-1" d="M418.9,271.78l22.8,12.39a2.58,2.58,0,0,0-1.33-.3l-22.79-12.4A2.46,2.46,0,0,1,418.9,271.78Z"/></clipPath><clipPath id="clip-path-10" transform="translate(-222.53 -148.58)"><path class="cls-1" d="M437.68,286.51l-22.8-12.4c.75-1.61,1.64-2.49,2.7-2.64l22.79,12.4C439.32,284,438.42,284.9,437.68,286.51Z"/></clipPath><clipPath id="clip-path-11" transform="translate(-222.53 -148.58)"><path class="cls-1" d="M432.84,292.68,410,280.28a17.59,17.59,0,0,0,4.84-6.17l22.8,12.4A17.83,17.83,0,0,1,432.84,292.68Z"/></clipPath><clipPath id="clip-path-12" transform="translate(-222.53 -148.58)"><path class="cls-1" d="M353.55,421l-22.8-12.4c-1-.54-2-1.11-3-1.7l22.79,12.4C351.55,419.92,352.55,420.49,353.55,421Z"/></clipPath><clipPath id="clip-path-13" transform="translate(-222.53 -148.58)"><path class="cls-1" d="M393.94,280.81l22.8,12.4a41.18,41.18,0,0,1,6.38,4.32,50.28,50.28,0,0,1,15.82,23.39l-22.79-12.4a50.28,50.28,0,0,0-15.82-23.39A40.78,40.78,0,0,0,393.94,280.81Z"/></clipPath><clipPath id="clip-path-14" transform="translate(-222.53 -148.58)"><path class="cls-1" d="M376.58,333l-22.8-12.4q8.45,4.59,26.85,9.93,16.81,4.73,25.23,9.3l22.8,12.4q-8.43-4.57-25.23-9.3Q385,337.63,376.58,333Z"/></clipPath><clipPath id="clip-path-15" transform="translate(-222.53 -148.58)"><path class="cls-1" d="M340.61,429.91l-22.79-12.4c-.92-.5-1.4-1.9-1.58-4.19q-.33-4.44,1.07-42.16l22.79,12.4q-1.41,37.71-1.06,42.16C339.22,428,339.7,429.41,340.61,429.91Z"/></clipPath><clipPath id="clip-path-16" transform="translate(-222.53 -148.58)"><path class="cls-1" d="M321,370.06l22.79,12.4a2,2,0,0,0-1.07-.25,5.87,5.87,0,0,0-.62,0,2.36,2.36,0,0,0-2,1.31l-22.79-12.4a2.34,2.34,0,0,1,2-1.31,6.26,6.26,0,0,1,.63,0A2,2,0,0,1,321,370.06Z"/></clipPath><clipPath id="clip-path-17" transform="translate(-222.53 -148.58)"><path class="cls-1" d="M391.57,284.7l-22.8-12.4a69.53,69.53,0,0,1,8.4-.65,59.16,59.16,0,0,1,15.92,2,82.14,82.14,0,0,1,17,6.64l22.8,12.4A82.58,82.58,0,0,0,415.89,286a59.28,59.28,0,0,0-15.93-2A69.36,69.36,0,0,0,391.57,284.7Z"/></clipPath><clipPath id="clip-path-18" transform="translate(-222.53 -148.58)"><path class="cls-1" d="M364.56,352.23l-22.8-12.39a32.35,32.35,0,0,1-4.48-2.88A31.82,31.82,0,0,1,327,323.78a29.83,29.83,0,0,1-2.22-14.35q1.53-14.48,16.77-25.94a58,58,0,0,1,27.26-11.19l22.8,12.4a58.05,58.05,0,0,0-27.27,11.19q-15.24,11.46-16.77,25.93a30,30,0,0,0,2.22,14.36,33,33,0,0,0,14.81,16.05Z"/></clipPath><linearGradient id="linear-gradient" x1="92.69" y1="389.8" x2="96.06" y2="389.8" gradientTransform="matrix(27.06, 0, 0, -27.5, -3961.63, 10922.24)" gradientUnits="userSpaceOnUse"><stop offset="0" stop-color="#010101"/><stop offset="0.77" stop-color="#383938"/><stop offset="0.91" stop-color="#272626"/><stop offset="1" stop-color="#010101"/></linearGradient><linearGradient id="linear-gradient-2" x1="143.06" y1="537.25" x2="146.65" y2="537.25" gradientTransform="matrix(1.9, -0.38, -0.48, -4.09, -56.49, 2353.81)" gradientUnits="userSpaceOnUse"><stop offset="0" stop-color="#fff"/><stop offset="1" stop-color="#919191"/></linearGradient><linearGradient id="linear-gradient-3" x1="-129.65" y1="446.17" x2="-126.02" y2="446.17" gradientTransform="matrix(2.76, 0, 0, -1.11, 963.27, 666.95)" gradientUnits="userSpaceOnUse"><stop offset="0" stop-color="#010101"/><stop offset="1" stop-color="#7a7a7a"/></linearGradient></defs><g class="cls-2"><g class="cls-2"><g class="cls-3"><g class="cls-2"><path class="cls-4" d="M332.69,473.87l-22.79-12.4.76.39,22.79,12.4-.76-.39" transform="translate(-222.53 -148.58)"/><path class="cls-5" d="M333.45,474.26l-22.79-12.4a25,25,0,0,0,4.84,1.76L338.29,476a25,25,0,0,1-4.84-1.76" transform="translate(-222.53 -148.58)"/><path class="cls-6" d="M338.29,476l-22.79-12.4q9.76,2.53,26.45.19a102.75,102.75,0,0,0,29.71-8.55l22.79,12.4a102.66,102.66,0,0,1-29.71,8.55q-16.67,2.34-26.45-.19" transform="translate(-222.53 -148.58)"/><path class="cls-5" d="M394.45,467.66l-22.79-12.4a83.33,83.33,0,0,0,11.8-6.78l22.79,12.4a82.78,82.78,0,0,1-11.8,6.78" transform="translate(-222.53 -148.58)"/><path class="cls-4" d="M406.25,460.88l-22.79-12.4a78.84,78.84,0,0,0,7.93-6.27l22.8,12.4a80.42,80.42,0,0,1-7.94,6.27" transform="translate(-222.53 -148.58)"/><path class="cls-7" d="M414.19,454.61l-22.8-12.4c.64-.57,1.26-1.15,1.87-1.74q3.47-3.33,6.67-7l22.79,12.4q-3.2,3.61-6.66,6.95c-.62.59-1.24,1.17-1.87,1.74" transform="translate(-222.53 -148.58)"/><path class="cls-8" d="M422.72,445.92l-22.79-12.4a120.76,120.76,0,0,0,8.39-10.66l22.79,12.4a120.36,120.36,0,0,1-8.39,10.66" transform="translate(-222.53 -148.58)"/><path class="cls-9" d="M431.11,435.26l-22.79-12.4a133.11,133.11,0,0,0,8.14-13.22L439.25,422a131.26,131.26,0,0,1-8.14,13.22" transform="translate(-222.53 -148.58)"/><path class="cls-10" d="M439.25,422l-22.79-12.4A151.1,151.1,0,0,0,424,393.19l22.79,12.4A149.23,149.23,0,0,1,439.25,422" transform="translate(-222.53 -148.58)"/></g></g></g><g class="cls-2"><g class="cls-11"><g class="cls-2"><path class="cls-10" d="M446.82,405.59,424,393.19c.41-1.05.8-2.09,1.19-3.14L448,402.45c-.38,1.05-.78,2.09-1.19,3.14" transform="translate(-222.53 -148.58)"/><path class="cls-12" d="M448,402.45l-22.79-12.4a160.35,160.35,0,0,0,10-55.45q.07-44.66-25.06-77.32a64.9,64.9,0,0,0-20.54-17.69L412.37,252a64.79,64.79,0,0,1,20.54,17.69Q458.05,302.33,458,347a160.4,160.4,0,0,1-10,55.45" transform="translate(-222.53 -148.58)"/></g></g></g><g class="cls-2"><g class="cls-13"><g class="cls-2"><path class="cls-12" d="M246.45,497.87l-22.8-12.4a2.1,2.1,0,0,1-1.12-2,3.78,3.78,0,0,1,.21-1.28l22.79,12.4a3.78,3.78,0,0,0-.21,1.28,2.12,2.12,0,0,0,1.13,2" transform="translate(-222.53 -148.58)"/><path class="cls-10" d="M245.53,494.57l-22.79-12.4a2.87,2.87,0,0,1,.18-.4l22.79,12.4a2.87,2.87,0,0,0-.18.4" transform="translate(-222.53 -148.58)"/><path class="cls-9" d="M245.71,494.17l-22.79-12.4a3.21,3.21,0,0,1,.19-.31l22.79,12.4a3.21,3.21,0,0,0-.19.31" transform="translate(-222.53 -148.58)"/><path class="cls-8" d="M245.9,493.86l-22.79-12.4a3,3,0,0,1,.22-.28l22.79,12.4c-.07.09-.15.18-.22.28" transform="translate(-222.53 -148.58)"/><path class="cls-7" d="M246.12,493.58l-22.79-12.4.28-.28,22.79,12.4-.28.28" transform="translate(-222.53 -148.58)"/><path class="cls-4" d="M246.4,493.3l-22.79-12.4c.12-.1.24-.2.38-.3l22.8,12.4-.39.3" transform="translate(-222.53 -148.58)"/><path class="cls-5" d="M246.79,493,224,480.6a5.3,5.3,0,0,1,.62-.36l.08,0,22.8,12.4-.08,0a4.59,4.59,0,0,0-.62.36" transform="translate(-222.53 -148.58)"/><path class="cls-6" d="M247.49,492.6l-22.8-12.4a121.06,121.06,0,0,1,12.79-4,40.58,40.58,0,0,0,6.16-2.3l22.8,12.4a41,41,0,0,1-6.16,2.3q-10.59,2.92-12.79,4" transform="translate(-222.53 -148.58)"/><path class="cls-5" d="M266.44,486.34l-22.8-12.4a31.55,31.55,0,0,0,4.71-2.69l22.79,12.4a32,32,0,0,1-4.7,2.69" transform="translate(-222.53 -148.58)"/><path class="cls-4" d="M271.14,483.65l-22.79-12.4a31,31,0,0,0,2.88-2.27L274,481.38a31,31,0,0,1-2.88,2.27" transform="translate(-222.53 -148.58)"/><path class="cls-7" d="M274,481.38,251.23,469a28.27,28.27,0,0,0,2.18-2.2l22.79,12.4a28.27,28.27,0,0,1-2.18,2.2" transform="translate(-222.53 -148.58)"/><path class="cls-8" d="M276.2,479.18l-22.79-12.4a28.11,28.11,0,0,0,1.85-2.35l22.79,12.4a26.17,26.17,0,0,1-1.85,2.35" transform="translate(-222.53 -148.58)"/><path class="cls-9" d="M278.05,476.83l-22.79-12.4a26.27,26.27,0,0,0,1.69-2.75l22.8,12.4a29.39,29.39,0,0,1-1.7,2.75" transform="translate(-222.53 -148.58)"/><path class="cls-10" d="M279.75,474.08,257,461.68c0-.07.07-.14.11-.2a17.72,17.72,0,0,0,1-2.27l22.8,12.4a19.19,19.19,0,0,1-1,2.27c0,.06-.07.13-.1.2" transform="translate(-222.53 -148.58)"/><path class="cls-12" d="M280.84,471.61,258,459.21q4.81-13.17,6.18-60.69L287,410.91q-1.36,47.54-6.17,60.7" transform="translate(-222.53 -148.58)"/></g></g></g><g class="cls-2"><g class="cls-14"><g class="cls-2"><path class="cls-6" d="M358.94,235.43,336.14,223q37.75-5.31,65.24,1.82l22.79,12.4q-27.48-7.12-65.23-1.82" transform="translate(-222.53 -148.58)"/><path class="cls-5" d="M424.17,237.25l-22.79-12.4a98.78,98.78,0,0,1,18.73,6.87l22.79,12.4a98.78,98.78,0,0,0-18.73-6.87" transform="translate(-222.53 -148.58)"/><path class="cls-4" d="M442.9,244.12l-22.79-12.4c1.08.54,2.16,1.09,3.21,1.67l22.8,12.4c-1.06-.58-2.13-1.13-3.22-1.67" transform="translate(-222.53 -148.58)"/></g></g></g><polygon class="cls-15" points="64.48 262.33 41.69 249.93 44.65 150.21 67.45 162.61 64.48 262.33"/><polygon class="cls-16" points="100.6 92.62 77.81 80.22 113.62 74.45 136.41 86.85 100.6 92.62"/><g class="cls-2"><g class="cls-17"><g class="cls-2"><path class="cls-12" d="M290,311.19l-22.79-12.4a241.62,241.62,0,0,0-2.11-33q-2.15-15.75-6.74-19.71a13.39,13.39,0,0,0-2.26-1.54l22.79,12.4a12.46,12.46,0,0,1,2.26,1.54q4.61,4,6.74,19.71a241.62,241.62,0,0,1,2.11,33" transform="translate(-222.53 -148.58)"/></g></g></g><g class="cls-2"><g class="cls-18"><g class="cls-2"><path class="cls-12" d="M260.65,253.2l-22.8-12.4a2.49,2.49,0,0,1-1.49-2.25,5.86,5.86,0,0,1,.32-2l22.79,12.4a5.87,5.87,0,0,0-.31,2,2.46,2.46,0,0,0,1.49,2.25" transform="translate(-222.53 -148.58)"/><path class="cls-10" d="M259.47,248.93l-22.79-12.4a3.81,3.81,0,0,1,.23-.5l22.79,12.4a3.81,3.81,0,0,0-.23.5" transform="translate(-222.53 -148.58)"/><path class="cls-9" d="M259.7,248.43,236.91,236a3.1,3.1,0,0,1,.21-.36l22.8,12.4a3.13,3.13,0,0,0-.22.36" transform="translate(-222.53 -148.58)"/><path class="cls-8" d="M259.92,248.07l-22.8-12.4a3.36,3.36,0,0,1,.24-.29l22.79,12.4a3.25,3.25,0,0,0-.23.29" transform="translate(-222.53 -148.58)"/><path class="cls-7" d="M260.15,247.78l-22.79-12.4a2.23,2.23,0,0,1,.26-.27l22.8,12.4a1.72,1.72,0,0,0-.27.27" transform="translate(-222.53 -148.58)"/><path class="cls-4" d="M260.42,247.51l-22.8-12.4a3,3,0,0,1,.35-.27l22.79,12.4a2.24,2.24,0,0,0-.34.27" transform="translate(-222.53 -148.58)"/><path class="cls-5" d="M260.76,247.24,238,234.84a3.16,3.16,0,0,1,.54-.31l22.79,12.4a3.6,3.6,0,0,0-.54.31" transform="translate(-222.53 -148.58)"/><path class="cls-6" d="M261.3,246.93l-22.79-12.4a5.16,5.16,0,0,1,1.5-.43q3.5-.49,21.3-1.4t39-3.9l22.79,12.4q-21.21,3-39,3.9t-21.29,1.4a5.14,5.14,0,0,0-1.51.43" transform="translate(-222.53 -148.58)"/></g></g></g><path class="cls-19" d="M461.61,256.63q34.69,30.78,34.6,85-.07,38.47-16.81,69.23t-41.81,48.74q-25.05,18-66.77,23.83-9.39,1.32-23.82,2.22-25.71,1.37-28.85,1.81-57,8-67.1,10.74c-3.83.53-5.73-.24-5.73-2.34a3.36,3.36,0,0,1,2.09-3.21q2.09-1,12.87-4,13.91-4,19.57-14.76t7.16-63l3-99.72a241.62,241.62,0,0,0-2.11-33q-2.14-15.75-6.74-19.71t-14.67-4.23c-4.87,0-7.3-1.16-7.29-3.28q0-3.94,3.65-4.45,3.48-.5,21.29-1.4t39-3.9l35.81-5.77Q426.91,225.88,461.61,256.63Zm-14.79,149A160.66,160.66,0,0,0,458,347q.07-44.65-25.06-77.32t-78.33-25.2Q330.93,247.8,327,250t-3.93,10.5q0,7.31-1.26,26.24-1.8,27.64-2.34,43.1l-1.67,51.82q-1.1,36.36-1.12,41.61,0,24.76,3,34.94t13,15.62q10,5.44,32.05,2.34,31.65-4.45,51.32-23.34t30.76-47.28" transform="translate(-222.53 -148.58)"/></g><g class="cls-2"><g class="cls-2"><g class="cls-20"><g class="cls-2"><path class="cls-21" d="M440.34,322.86l-22.8-12.4a3.55,3.55,0,0,1-1.39-1.94l22.79,12.4a3.51,3.51,0,0,0,1.4,1.94" transform="translate(-222.53 -148.58)"/></g></g></g><g class="cls-2"><g class="cls-22"><g class="cls-2"><path class="cls-23" d="M371,421.13l-22.79-12.4c.45.24.9.48,1.36.71l22.8,12.4-1.37-.71" transform="translate(-222.53 -148.58)"/><path class="cls-24" d="M372.37,421.84l-22.8-12.4a37.58,37.58,0,0,0,7.13,2.63l22.79,12.4a37.48,37.48,0,0,1-7.12-2.63" transform="translate(-222.53 -148.58)"/><path class="cls-25" d="M379.49,424.47l-22.79-12.4a42.42,42.42,0,0,0,11.49,1.28,51.46,51.46,0,0,0,6.21-.47,39.24,39.24,0,0,0,11.31-3.29l22.8,12.4a39.08,39.08,0,0,1-11.32,3.28,51.43,51.43,0,0,1-6.21.48,42.51,42.51,0,0,1-11.49-1.28" transform="translate(-222.53 -148.58)"/><path class="cls-24" d="M408.51,422l-22.8-12.4a33.71,33.71,0,0,0,4.85-2.79l22.79,12.4a33.6,33.6,0,0,1-4.84,2.79" transform="translate(-222.53 -148.58)"/><path class="cls-23" d="M413.35,419.2l-22.79-12.4a34.68,34.68,0,0,0,3.39-2.68l22.79,12.39a33.33,33.33,0,0,1-3.39,2.69" transform="translate(-222.53 -148.58)"/><path class="cls-26" d="M416.74,416.51,394,404.12l.22-.2a42.74,42.74,0,0,0,3.21-3.26l22.8,12.39a43,43,0,0,1-3.22,3.27l-.22.19" transform="translate(-222.53 -148.58)"/><path class="cls-27" d="M420.18,413.05l-22.8-12.39a36.59,36.59,0,0,0,2.57-3.25l22.79,12.4a36.72,36.72,0,0,1-2.56,3.24" transform="translate(-222.53 -148.58)"/><path class="cls-28" d="M422.74,409.81,400,397.41a32.39,32.39,0,0,0,2-3.29l22.8,12.4a34.4,34.4,0,0,1-2,3.29" transform="translate(-222.53 -148.58)"/><path class="cls-29" d="M424.78,406.52,402,394.12a30.12,30.12,0,0,0,1.76-3.9l22.79,12.4a30.67,30.67,0,0,1-1.75,3.9" transform="translate(-222.53 -148.58)"/><path class="cls-21" d="M426.53,402.62l-22.79-12.4a28.93,28.93,0,0,0,1.64-7.08,22.66,22.66,0,0,0-3.28-14.72A29.54,29.54,0,0,0,390.84,358l22.8,12.4a29.51,29.51,0,0,1,11.25,10.42,22.73,22.73,0,0,1,3.29,14.72,29.42,29.42,0,0,1-1.65,7.08" transform="translate(-222.53 -148.58)"/></g></g></g><g class="cls-2"><g class="cls-30"><g class="cls-2"><path class="cls-25" d="M440.37,283.87l-22.79-12.4a2.66,2.66,0,0,1,.75.08L441.12,284a2.58,2.58,0,0,0-.75-.08" transform="translate(-222.53 -148.58)"/><path class="cls-24" d="M441.12,284l-22.79-12.4a2.64,2.64,0,0,1,.47.17l22.8,12.4a2.74,2.74,0,0,0-.48-.17" transform="translate(-222.53 -148.58)"/><path class="cls-23" d="M441.6,284.12l-22.8-12.4.1.06,22.8,12.39-.1-.05" transform="translate(-222.53 -148.58)"/></g></g></g><g class="cls-2"><g class="cls-31"><g class="cls-2"><path class="cls-29" d="M437.68,286.51l-22.8-12.4.26-.52,22.8,12.4c-.09.16-.18.34-.26.52" transform="translate(-222.53 -148.58)"/><path class="cls-28" d="M437.94,286l-22.8-12.4a6.48,6.48,0,0,1,.43-.7l22.79,12.4a6.47,6.47,0,0,0-.42.7" transform="translate(-222.53 -148.58)"/><path class="cls-27" d="M438.36,285.29l-22.79-12.4a4,4,0,0,1,.35-.44l22.79,12.4c-.12.13-.23.28-.35.44" transform="translate(-222.53 -148.58)"/><path class="cls-26" d="M438.71,284.85l-22.79-12.4a3.14,3.14,0,0,1,.31-.32L439,284.53a3.14,3.14,0,0,0-.31.32" transform="translate(-222.53 -148.58)"/><path class="cls-23" d="M439,284.53l-22.79-12.4.31-.25,22.8,12.4a3.92,3.92,0,0,0-.32.25" transform="translate(-222.53 -148.58)"/><path class="cls-24" d="M439.34,284.28l-22.8-12.4a3.59,3.59,0,0,1,.38-.21l22.79,12.4a2.71,2.71,0,0,0-.37.21" transform="translate(-222.53 -148.58)"/><path class="cls-25" d="M439.71,284.07l-22.79-12.4a2.19,2.19,0,0,1,.66-.2l22.79,12.4a2.19,2.19,0,0,0-.66.2" transform="translate(-222.53 -148.58)"/></g></g></g><g class="cls-2"><g class="cls-32"><g class="cls-2"><path class="cls-23" d="M432.84,292.68,410,280.28l.4-.35,22.79,12.4-.39.35" transform="translate(-222.53 -148.58)"/><path class="cls-26" d="M433.23,292.33l-22.79-12.4a22.88,22.88,0,0,0,1.84-1.85l22.79,12.4a21.35,21.35,0,0,1-1.84,1.85" transform="translate(-222.53 -148.58)"/><path class="cls-27" d="M435.07,290.48l-22.79-12.4a16,16,0,0,0,1.24-1.56l22.79,12.4a17.27,17.27,0,0,1-1.24,1.56" transform="translate(-222.53 -148.58)"/><path class="cls-28" d="M436.31,288.92l-22.79-12.4a14.24,14.24,0,0,0,.91-1.47l22.79,12.4a14.24,14.24,0,0,1-.91,1.47" transform="translate(-222.53 -148.58)"/><path class="cls-29" d="M437.22,287.45l-22.79-12.4c.16-.31.32-.62.45-.94l22.8,12.4c-.14.32-.29.63-.46.94" transform="translate(-222.53 -148.58)"/></g></g></g><g class="cls-2"><g class="cls-33"><g class="cls-2"><path class="cls-21" d="M353.55,421l-22.8-12.4c-1-.54-2-1.11-3-1.7l22.79,12.4c1,.59,2,1.16,3,1.7" transform="translate(-222.53 -148.58)"/></g></g></g><g class="cls-2"><g class="cls-34"><g class="cls-2"><path class="cls-21" d="M438.94,320.92l-22.79-12.4a50.28,50.28,0,0,0-15.82-23.39,40.78,40.78,0,0,0-6.39-4.32l22.8,12.4a41.18,41.18,0,0,1,6.38,4.32,50.28,50.28,0,0,1,15.82,23.39" transform="translate(-222.53 -148.58)"/></g></g></g><g class="cls-2"><g class="cls-35"><g class="cls-2"><path class="cls-23" d="M376.58,333l-22.8-12.4c.59.32,1.22.65,1.89,1L378.46,334c-.66-.33-1.29-.66-1.88-1" transform="translate(-222.53 -148.58)"/><path class="cls-24" d="M378.46,334l-22.79-12.4q8.49,4.17,25,8.95,15,4.21,23.29,8.3l22.79,12.4q-8.31-4.09-23.28-8.3-16.47-4.77-25-9" transform="translate(-222.53 -148.58)"/><path class="cls-23" d="M426.71,351.27l-22.79-12.4c.68.34,1.33.67,1.94,1l22.8,12.4c-.62-.33-1.26-.66-2-1" transform="translate(-222.53 -148.58)"/></g></g></g><g class="cls-2"><g class="cls-36"><g class="cls-2"><path class="cls-21" d="M340.61,429.91l-22.79-12.4c-.92-.5-1.4-1.9-1.58-4.19q-.33-4.44,1.07-42.16l22.79,12.4q-1.41,37.71-1.06,42.16c.18,2.29.66,3.69,1.57,4.19" transform="translate(-222.53 -148.58)"/></g></g></g><g class="cls-2"><g class="cls-37"><g class="cls-2"><path class="cls-29" d="M340.1,383.56l-22.79-12.4.06-.13,22.79,12.4-.06.13" transform="translate(-222.53 -148.58)"/><path class="cls-28" d="M340.16,383.43,317.37,371c0-.08.09-.15.13-.22l22.8,12.4a1.64,1.64,0,0,0-.14.22" transform="translate(-222.53 -148.58)"/><path class="cls-27" d="M340.3,383.21l-22.8-12.4c.05-.06.09-.12.14-.17l22.8,12.4a1.15,1.15,0,0,0-.14.17" transform="translate(-222.53 -148.58)"/><path class="cls-26" d="M340.44,383l-22.8-12.4a1.37,1.37,0,0,1,.17-.17l22.79,12.4a1.29,1.29,0,0,0-.16.17" transform="translate(-222.53 -148.58)"/><path class="cls-23" d="M340.6,382.87l-22.79-12.4a1.56,1.56,0,0,1,.2-.16l22.8,12.4a1.16,1.16,0,0,0-.21.16" transform="translate(-222.53 -148.58)"/><path class="cls-24" d="M340.81,382.71,318,370.31a2.27,2.27,0,0,1,.34-.19l22.79,12.4a1.77,1.77,0,0,0-.33.19" transform="translate(-222.53 -148.58)"/><path class="cls-25" d="M341.14,382.52l-22.79-12.4a3,3,0,0,1,.92-.27,6.26,6.26,0,0,1,.63,0,2.08,2.08,0,0,1,.61.07l22.79,12.39a2.43,2.43,0,0,0-.61-.06,5.87,5.87,0,0,0-.62,0,3.17,3.17,0,0,0-.93.27" transform="translate(-222.53 -148.58)"/><path class="cls-24" d="M343.3,382.27l-22.79-12.39a1.74,1.74,0,0,1,.38.14l22.8,12.4-.39-.15" transform="translate(-222.53 -148.58)"/><path class="cls-23" d="M343.69,382.42,320.89,370l.08,0,22.79,12.4-.07,0" transform="translate(-222.53 -148.58)"/></g></g></g><g class="cls-2"><g class="cls-38"><g class="cls-2"><path class="cls-25" d="M391.57,284.7l-22.8-12.4a69.53,69.53,0,0,1,8.4-.65,59.25,59.25,0,0,1,15.88,2L415.84,286a59.21,59.21,0,0,0-15.88-2,69.36,69.36,0,0,0-8.39.65" transform="translate(-222.53 -148.58)"/><path class="cls-24" d="M415.84,286l-22.79-12.4h0a81.46,81.46,0,0,1,15.28,5.79l22.79,12.4A81.11,81.11,0,0,0,415.89,286h-.05" transform="translate(-222.53 -148.58)"/><path class="cls-23" d="M431.16,291.83l-22.79-12.4,1.67.85,22.8,12.4-1.68-.85" transform="translate(-222.53 -148.58)"/></g></g></g><g class="cls-2"><g class="cls-39"><g class="cls-2"><path class="cls-21" d="M364.56,352.23l-22.8-12.4a31.46,31.46,0,0,1-4.48-2.87A31.82,31.82,0,0,1,327,323.78a28.9,28.9,0,0,1-.54-21.56l22.79,12.4a28.88,28.88,0,0,0,.54,21.56,33,33,0,0,0,14.81,16.05" transform="translate(-222.53 -148.58)"/><path class="cls-29" d="M349.21,314.62l-22.79-12.4a32.61,32.61,0,0,1,1.85-4.11l22.8,12.4a31.31,31.31,0,0,0-1.86,4.11" transform="translate(-222.53 -148.58)"/><path class="cls-28" d="M351.07,310.51l-22.8-12.4a36.68,36.68,0,0,1,2.21-3.57l22.8,12.4a33.78,33.78,0,0,0-2.21,3.57" transform="translate(-222.53 -148.58)"/><path class="cls-27" d="M353.28,306.94l-22.8-12.4a42.37,42.37,0,0,1,2.85-3.6l22.79,12.4a40.32,40.32,0,0,0-2.84,3.6" transform="translate(-222.53 -148.58)"/><path class="cls-26" d="M356.12,303.34l-22.79-12.4a48.86,48.86,0,0,1,4-4l22.8,12.4a49,49,0,0,0-4,4" transform="translate(-222.53 -148.58)"/><path class="cls-23" d="M360.13,299.32l-22.8-12.4q1.95-1.76,4.18-3.43c.64-.48,1.28-.95,1.93-1.4l22.8,12.4c-.65.45-1.3.92-1.94,1.4q-2.24,1.68-4.17,3.43" transform="translate(-222.53 -148.58)"/><path class="cls-24" d="M366.24,294.49l-22.8-12.4a57.29,57.29,0,0,1,8.23-4.74l22.79,12.4a57.19,57.19,0,0,0-8.22,4.74" transform="translate(-222.53 -148.58)"/><path class="cls-25" d="M374.46,289.75l-22.79-12.4a59.19,59.19,0,0,1,17.1-5.05l22.8,12.4a59.25,59.25,0,0,0-17.11,5.05" transform="translate(-222.53 -148.58)"/></g></g></g><path class="cls-40" d="M391.57,284.7a69.36,69.36,0,0,1,8.39-.65,59.28,59.28,0,0,1,15.93,2,82.58,82.58,0,0,1,16.95,6.64,17.83,17.83,0,0,0,4.84-6.17c.74-1.61,1.64-2.49,2.69-2.64a2.87,2.87,0,0,1,2.25,1q.4,3.92.67,15.74l.65,20.41a2.13,2.13,0,0,1-2.1,2c-.21,0-.44,0-.67.05-.94,0-1.68-.69-2.23-2.14a50.28,50.28,0,0,0-15.82-23.39,37.92,37.92,0,0,0-25.5-8.87,43.84,43.84,0,0,0-5.39.41q-10.34,1.46-16.74,7.92-8,8.07-9,17-1.14,10.88,6.06,16.51T403.43,343q17.42,4.9,25.83,9.64a36.1,36.1,0,0,1,13.55,13.44,30,30,0,0,1,4.07,18.82q-1.81,17.2-18.52,31.08a60.31,60.31,0,0,1-30.66,13.64,69.23,69.23,0,0,1-8.24.65q-20,.36-38.91-10.91a16.18,16.18,0,0,0-5.89,7.27c-.81,2.16-1.84,3.34-3.11,3.52-1.54,0-2.28-1.43-2.51-4.4s.12-17,1.06-42.16a2.36,2.36,0,0,1,2-1.31,5.87,5.87,0,0,1,.62,0c1.17,0,2,.76,2.55,2.34q13.53,41.79,45.74,41.2a51.43,51.43,0,0,0,6.21-.48A35.88,35.88,0,0,0,417,416.32q10-9.15,11.22-20.78a22.73,22.73,0,0,0-3.29-14.72,29.76,29.76,0,0,0-11.69-10.65q-7.56-4-24.29-8.79-21.48-6.24-28.84-12a31.82,31.82,0,0,1-10.32-13.18,30,30,0,0,1-2.22-14.36q1.53-14.46,16.77-25.93A58.05,58.05,0,0,1,391.57,284.7Z" transform="translate(-222.53 -148.58)"/></g><path class="cls-41" d="M298.31,170.9h85.91L389,215.69c-.61,7.65-.91,7.89-5.43,11.29-5.55,3.3-12.29,5-18.42,6.28-15.37,3.11-32.36,3.09-52.86-3.77-6.68-2.1-9.66-11.28-9.2-15.05l-4.81-43.55Z" transform="translate(-222.53 -148.58)"/><path class="cls-42" d="M250.55,174.56l92.27-26L439,172.39l-92.84,45.46Z" transform="translate(-222.53 -148.58)"/><path class="cls-43" d="M227.89,244.2l5.46-.22c3.08,19,8.72,45.47,7,49.78-2.19,7.1-12.53,10.1-15,2,.14-15.31,2.92-31.18,2.51-51.56Z" transform="translate(-222.53 -148.58)"/><path class="cls-44" d="M351.44,171.1c-2.92,2.34-9-2.1-10-.23a8.1,8.1,0,0,0,0,1.63c2.41,2.58,7.05,2.63,9.88,0l.12-1.43Z" transform="translate(-222.53 -148.58)"/><path class="cls-43" d="M338.94,170.42l5.84.16c-27.84,9.24-99.7,30-112.29,41-3.78,3.35-.83,10.82-1,18.41L224.85,231c-.24-7.36,1.15-15.61,3.46-20.24,2.57-4.74,9.12-14.39,110.64-40.38Z" transform="translate(-222.53 -148.58)"/><polygon class="cls-45" points="3.27 82.53 9.51 81.19 11.24 96.76 5 98.1 3.27 82.53"/><path class="cls-46" d="M350.83,169.29c9.22-4.49,18.79-8.29,30.1-8,.51-.17,1.37,1.18-.48,1.25-10,.59-19.31,4.58-28.83,7.59-1.2.6-1.52-.48-.79-.8Z" transform="translate(-222.53 -148.58)"/><path class="cls-46" d="M351,172.37c10.91,3.46,21.91,7.87,33,17.65.58.25.88,2.28-1,.79-10.09-7.84-20.92-11.88-31.54-17-1.43-.44-1.31-1.74-.46-1.43Z" transform="translate(-222.53 -148.58)"/><path class="cls-46" d="M344.64,169.83c-10.77-4.37-22-8.23-35.46-9.08-.59-.18-1.67.8.53,1,11.83,1.37,22.76,5.37,34,8.61,1.4.57,1.83-.24,1-.56Z" transform="translate(-222.53 -148.58)"/><path class="cls-43" d="M233.67,227.74c0,4.13-2.16,7.5-4.87,7.54s-5-3.27-5-7.39v-.15" transform="translate(-222.53 -148.58)"/><path class="cls-47" d="M351.44,171.1c-2.24,2.37-7.74,2.29-10,0,0-1.67,2.25-3,5-3s5,1.36,5,3Z" transform="translate(-222.53 -148.58)"/><path class="cls-48" d="M352.79,170.74c9.21-4.48,18.79-8.28,30.1-8,.51-.18,1.36,1.18-.48,1.25-10,.58-19.31,4.58-28.83,7.59-1.2.59-1.52-.48-.79-.81Z" transform="translate(-222.53 -148.58)"/><path class="cls-48" d="M349.44,173.55c11,3.55,22.14,8,33.32,17.94.58.26.87,2.29-1,.79-10.18-7.94-21.13-12.06-31.86-17.28-1.44-.45-1.32-1.76-.46-1.45Z" transform="translate(-222.53 -148.58)"/><path class="cls-48" d="M307.24,160.33c11.15,1.38,22.45,3.5,34.23,9.86.59.13,1,1.7-.93.75-10.64-4.95-21.76-6.79-32.74-9.53-1.46-.17-1.43-1.22-.56-1.08Z" transform="translate(-222.53 -148.58)"/></svg>